<svg width="68" height="15" viewBox="0 0 68 15" fill="none" xmlns="http://www.w3.org/2000/svg">
    <path d="M1.05682 12V3.27273H4.10795C4.71591 3.27273 5.21733 3.37784 5.61222 3.58807C6.0071 3.79545 6.30114 4.07528 6.49432 4.42756C6.6875 4.77699 6.78409 5.16477 6.78409 5.59091C6.78409 5.96591 6.71733 6.27557 6.58381 6.51989C6.45313 6.7642 6.27983 6.95739 6.06392 7.09943C5.85085 7.24148 5.61932 7.34659 5.36932 7.41477V7.5C5.63636 7.51705 5.90483 7.6108 6.17472 7.78125C6.4446 7.9517 6.67045 8.19602 6.85227 8.5142C7.03409 8.83239 7.125 9.22159 7.125 9.68182C7.125 10.1193 7.02557 10.5128 6.8267 10.8622C6.62784 11.2116 6.31392 11.4886 5.88494 11.6932C5.45597 11.8977 4.89773 12 4.21023 12H1.05682ZM2.11364 11.0625H4.21023C4.90057 11.0625 5.39063 10.929 5.6804 10.6619C5.97301 10.392 6.11932 10.0653 6.11932 9.68182C6.11932 9.38636 6.04403 9.11364 5.89347 8.86364C5.7429 8.6108 5.52841 8.40909 5.25 8.25852C4.97159 8.10511 4.64205 8.02841 4.26136 8.02841H2.11364V11.0625ZM2.11364 7.10795H4.07386C4.39205 7.10795 4.67898 7.04545 4.93466 6.92045C5.19318 6.79545 5.39773 6.61932 5.5483 6.39205C5.7017 6.16477 5.77841 5.89773 5.77841 5.59091C5.77841 5.20739 5.64489 4.8821 5.37784 4.61506C5.1108 4.34517 4.6875 4.21023 4.10795 4.21023H2.11364V7.10795ZM8.86151 12V3.27273H11.8104C12.4922 3.27273 13.0518 3.3892 13.4893 3.62216C13.9268 3.85227 14.2507 4.16903 14.4609 4.57244C14.6712 4.97585 14.7763 5.43466 14.7763 5.94886C14.7763 6.46307 14.6712 6.91903 14.4609 7.31676C14.2507 7.71449 13.9283 8.02699 13.4936 8.25426C13.0589 8.47869 12.5036 8.59091 11.8274 8.59091H9.44105V7.63636H11.7933C12.2592 7.63636 12.6342 7.56818 12.9183 7.43182C13.2053 7.29545 13.4126 7.10227 13.5405 6.85227C13.6712 6.59943 13.7365 6.2983 13.7365 5.94886C13.7365 5.59943 13.6712 5.29403 13.5405 5.03267C13.4098 4.77131 13.201 4.5696 12.9141 4.42756C12.6271 4.28267 12.2479 4.21023 11.7763 4.21023H9.91832V12H8.86151ZM12.9695 8.07955L15.1172 12H13.8899L11.7763 8.07955H12.9695ZM16.5373 12V3.27273H17.5941V7.15909H22.2475V3.27273H23.3043V12H22.2475V8.09659H17.5941V12H16.5373Z" fill="black"/>
    <path d="M25.375 4.9858V3.27273H32.7514V4.9858H30.1051V12H28.0256V4.9858H25.375ZM34.7362 12.1108C34.3185 12.1108 33.9478 12.0412 33.6239 11.902C33.3029 11.7599 33.0487 11.5469 32.8612 11.2628C32.6765 10.9759 32.5842 10.6165 32.5842 10.1847C32.5842 9.82102 32.6481 9.5142 32.7759 9.2642C32.9038 9.0142 33.0799 8.81108 33.3043 8.65483C33.5288 8.49858 33.7873 8.38068 34.0799 8.30114C34.3725 8.21875 34.685 8.16335 35.0174 8.13494C35.3896 8.10085 35.6893 8.06534 35.9165 8.02841C36.1438 7.98864 36.3086 7.93324 36.4109 7.86222C36.516 7.78835 36.5685 7.68466 36.5685 7.55114V7.52983C36.5685 7.31108 36.4933 7.14205 36.3427 7.02273C36.1921 6.90341 35.989 6.84375 35.7333 6.84375C35.4577 6.84375 35.2362 6.90341 35.0685 7.02273C34.9009 7.14205 34.7944 7.30682 34.7489 7.51705L32.8271 7.44886C32.8839 7.05114 33.0302 6.69602 33.266 6.38352C33.5046 6.06818 33.8313 5.82102 34.2461 5.64205C34.6637 5.46023 35.1651 5.36932 35.7504 5.36932C36.168 5.36932 36.5529 5.41903 36.9052 5.51847C37.2575 5.61506 37.5643 5.7571 37.8256 5.9446C38.087 6.12926 38.2887 6.35653 38.4308 6.62642C38.5756 6.89631 38.6481 7.20455 38.6481 7.55114V12H36.6879V11.0881H36.6367C36.5202 11.3097 36.3711 11.4972 36.1893 11.6506C36.0103 11.804 35.7987 11.919 35.5543 11.9957C35.3129 12.0724 35.0401 12.1108 34.7362 12.1108ZM35.3796 10.7472C35.604 10.7472 35.8058 10.7017 35.9847 10.6108C36.1665 10.5199 36.3114 10.3949 36.4194 10.2358C36.5273 10.0739 36.5813 9.88636 36.5813 9.6733V9.05114C36.5217 9.08239 36.4492 9.1108 36.364 9.13636C36.2816 9.16193 36.1907 9.18608 36.0913 9.20881C35.9918 9.23153 35.8896 9.25142 35.7844 9.26847C35.6793 9.28551 35.5785 9.30114 35.4819 9.31534C35.2859 9.34659 35.1183 9.39489 34.979 9.46023C34.8427 9.52557 34.7376 9.6108 34.6637 9.71591C34.5927 9.81818 34.5572 9.94034 34.5572 10.0824C34.5572 10.2983 34.6339 10.4631 34.7873 10.5767C34.9435 10.6903 35.141 10.7472 35.3796 10.7472ZM41.8015 10.2827L41.81 7.7983H42.0998L43.9407 5.45455H46.3015L43.5657 8.8125H43.016L41.8015 10.2827ZM39.9222 12V3.27273H42.006V12H39.9222ZM43.9876 12L42.2745 9.28125L43.6467 7.80256L46.3952 12H43.9876ZM47.0472 12V5.45455H49.131V12H47.0472ZM48.0913 4.69176C47.7987 4.69176 47.5472 4.59517 47.337 4.40199C47.1268 4.20597 47.0217 3.97017 47.0217 3.6946C47.0217 3.42187 47.1268 3.18892 47.337 2.99574C47.5472 2.79972 47.7987 2.7017 48.0913 2.7017C48.3867 2.7017 48.6381 2.79972 48.8455 2.99574C49.0558 3.18892 49.1609 3.42187 49.1609 3.6946C49.1609 3.97017 49.0558 4.20597 48.8455 4.40199C48.6381 4.59517 48.3867 4.69176 48.0913 4.69176ZM50.4574 14.4545V5.45455H52.5199V6.57528H52.5838C52.669 6.37642 52.7898 6.18466 52.946 6C53.1051 5.81534 53.3068 5.66477 53.5511 5.5483C53.7983 5.42898 54.0938 5.36932 54.4375 5.36932C54.892 5.36932 55.3168 5.48864 55.7116 5.72727C56.1094 5.96591 56.4304 6.33381 56.6747 6.83097C56.919 7.32812 57.0412 7.96165 57.0412 8.73153C57.0412 9.47301 56.9233 10.0938 56.6875 10.5938C56.4545 11.0938 56.1392 11.4688 55.7415 11.7188C55.3466 11.9688 54.9077 12.0938 54.4247 12.0938C54.0952 12.0938 53.8097 12.0398 53.5682 11.9318C53.3267 11.8239 53.1236 11.6818 52.9588 11.5057C52.7969 11.3295 52.6719 11.1406 52.5838 10.9389H52.5412V14.4545H50.4574ZM52.4986 8.72727C52.4986 9.07955 52.5455 9.38636 52.6392 9.64773C52.7358 9.90909 52.8736 10.1122 53.0526 10.2571C53.2344 10.3991 53.4517 10.4702 53.7045 10.4702C53.9602 10.4702 54.1776 10.3991 54.3565 10.2571C54.5355 10.1122 54.6705 9.90909 54.7614 9.64773C54.8551 9.38636 54.902 9.07955 54.902 8.72727C54.902 8.375 54.8551 8.0696 54.7614 7.81108C54.6705 7.55256 54.5355 7.35227 54.3565 7.21023C54.1804 7.06818 53.9631 6.99716 53.7045 6.99716C53.4489 6.99716 53.2315 7.06676 53.0526 7.20597C52.8736 7.34517 52.7358 7.54403 52.6392 7.80256C52.5455 8.06108 52.4986 8.36932 52.4986 8.72727Z" fill="#2197F3"/>
    <path d="M64.005 8.87176L61.2755 11.8458C61.0868 12.0514 60.7817 12.0514 60.5951 11.8458L60.1415 11.3516C59.9528 11.146 59.9528 10.8137 60.1415 10.6103L62.0763 8.50219L60.1415 6.3941C59.9528 6.18853 59.9528 5.85614 60.1415 5.65276L60.5931 5.15417C60.7817 4.94861 61.0868 4.94861 61.2735 5.15417L64.003 8.12824C64.1937 8.3338 64.1937 8.6662 64.005 8.87176ZM67.8585 8.12824L65.129 5.15417C64.9403 4.94861 64.6352 4.94861 64.4486 5.15417L63.995 5.64839C63.8063 5.85395 63.8063 6.18635 63.995 6.38972L65.9298 8.49781L63.995 10.6059C63.8063 10.8115 63.8063 11.1439 63.995 11.3472L64.4486 11.8415C64.6372 12.047 64.9423 12.047 65.129 11.8415L67.8585 8.86738C68.0472 8.6662 68.0472 8.3338 67.8585 8.12824Z" fill="black"/>
</svg>