<svg width="93" height="35" viewBox="0 0 93 35" fill="none" xmlns="http://www.w3.org/2000/svg">
<mask id="mask0_6_63" style="mask-type:luminance" maskUnits="userSpaceOnUse" x="0" y="11" width="33" height="9">
<path d="M0 11.7896H32.3922V19.502H0V11.7896Z" fill="white"/>
</mask>
<g mask="url(#mask0_6_63)">
<path d="M1.11067 19.2148C1.191 19.0291 1.15987 18.8031 1.02832 18.6665C1.01526 18.6535 1.00221 18.6354 0.987146 18.6254C0.961036 18.6093 0.935931 18.5862 0.906809 18.5631C0.906809 18.5631 0.9048 18.5611 0.9048 18.5581C0.901787 18.5581 0.901787 18.5581 0.901787 18.5581C0.786302 18.4476 0.674833 18.2719 0.605541 18.1403C0.603533 18.063 0.608554 17.9756 0.621609 17.8752C0.674833 17.3631 1.09259 16.8298 1.87287 16.2674C2.31372 15.9411 2.86805 15.6288 3.53787 15.3325C4.23279 15.0333 5.07333 14.7732 6.05746 14.5573C8.19043 14.1033 10.2491 13.9929 12.2354 14.2249C14.1927 14.4588 16.2021 14.6758 18.2688 14.8716C19.3996 15.0001 20.5434 15.0724 21.6932 15.0875C22.842 15.1036 24.0531 15.0282 25.3205 14.8635C28.079 14.508 30.1247 13.8664 31.4522 12.9395C31.7535 12.7225 32.0277 12.5317 32.2807 12.363C32.3058 12.2686 32.3329 12.1742 32.36 12.0798C32.348 11.9834 32.3349 11.886 32.3199 11.7896C32.0086 12.0065 31.6521 12.2516 31.2383 12.5348C29.8776 13.4365 27.9043 14.0572 25.3074 14.3946C23.1021 14.6908 20.9993 14.6938 19.0109 14.4056C16.9934 14.1194 14.9689 13.9055 12.9384 13.7609C11.8388 13.6866 10.715 13.6655 9.57124 13.7067C8.43044 13.7458 7.25751 13.9025 6.05445 14.1706C4.87951 14.4388 3.90341 14.743 3.12815 15.0774C2.38301 15.438 1.79354 15.7965 1.3557 16.152C0.510141 16.8599 0.103431 17.5197 0.142595 18.1333L0.165692 18.3422C0.170713 18.3984 0.177743 18.4496 0.18879 18.4988C0.195819 18.6203 0.195819 18.7439 0.182764 18.8523C0.175735 18.9296 0.180756 19.009 0.18879 19.0863C0.208874 19.2791 0.412731 19.4649 0.63366 19.493" fill="#FEBE98"/>
</g>
<mask id="mask1_6_63" style="mask-type:luminance" maskUnits="userSpaceOnUse" x="67" y="9" width="26" height="5">
<path d="M67.0349 9.76812H93V13.8814H67.0349V9.76812Z" fill="white"/>
</mask>
<g mask="url(#mask1_6_63)">
<mask id="mask2_6_63" style="mask-type:luminance" maskUnits="userSpaceOnUse" x="67" y="7" width="27" height="10">
<path d="M67.7448 7.59699L93.0834 9.98905L92.5039 16.1319L67.1654 13.7398L67.7448 7.59699Z" fill="white"/>
</mask>
<g mask="url(#mask2_6_63)">
<mask id="mask3_6_63" style="mask-type:luminance" maskUnits="userSpaceOnUse" x="67" y="7" width="26" height="9">
<path d="M67.7087 7.98161L67.2146 13.2136C67.1955 13.4255 67.3512 13.6133 67.5631 13.6334L92.057 15.9451C92.2689 15.9652 92.4577 15.8095 92.4778 15.5976L92.9719 10.3656C92.9809 10.2642 92.9498 10.1628 92.8845 10.0834C92.8192 10.0051 92.7259 9.95491 92.6234 9.94587L68.1294 7.63315C67.9176 7.61306 67.7288 7.76872 67.7087 7.98161Z" fill="white"/>
</mask>
<g mask="url(#mask3_6_63)">
<mask id="mask4_6_63" style="mask-type:luminance" maskUnits="userSpaceOnUse" x="67" y="7" width="27" height="9">
<path d="M67.7448 7.59699L93.0834 9.98905L92.522 15.9401L67.1835 13.548L67.7448 7.59699Z" fill="white"/>
</mask>
<g mask="url(#mask4_6_63)">
<mask id="mask5_6_63" style="mask-type:luminance" maskUnits="userSpaceOnUse" x="67" y="7" width="27" height="9">
<path d="M92.4396 15.9802L67.1011 13.5882L67.6624 7.63817L93.001 10.0302L92.4396 15.9802Z" fill="white"/>
</mask>
<g mask="url(#mask5_6_63)">
<path d="M92.1233 10.1186C92.047 10.2572 92.0551 10.4359 92.1464 10.5524C92.1555 10.5635 92.1645 10.5785 92.1756 10.5876C92.1946 10.6016 92.2127 10.6217 92.2338 10.6418C92.2338 10.6418 92.2358 10.6438 92.2348 10.6458C92.2368 10.6458 92.2368 10.6458 92.2368 10.6458C92.3192 10.7402 92.3925 10.8848 92.4377 10.9923C92.4336 11.0525 92.4226 11.1208 92.4055 11.1981C92.3262 11.5928 91.9617 11.9774 91.3129 12.357C90.9464 12.5789 90.4915 12.7818 89.9492 12.9626C89.3848 13.1443 88.712 13.2849 87.9307 13.3813C86.2366 13.5771 84.6258 13.5129 83.0974 13.1855C81.5901 12.8591 80.0415 12.5438 78.4478 12.2395C77.5772 12.0557 76.6915 11.9151 75.7987 11.8187C74.9049 11.7223 73.957 11.6922 72.9588 11.7274C70.7846 11.8007 69.1457 12.1501 68.0441 12.7748C67.793 12.9214 67.5661 13.0489 67.3572 13.1624C67.3301 13.2347 67.302 13.305 67.2739 13.3763C67.2769 13.4526 67.2799 13.5289 67.2839 13.6053C67.543 13.4596 67.8382 13.295 68.1807 13.1052C69.3064 12.5036 70.8881 12.1652 72.9347 12.0929C74.673 12.0246 76.3089 12.1773 77.8363 12.5478C79.3858 12.9184 80.9463 13.2337 82.5159 13.4948C83.3665 13.6344 84.2392 13.7328 85.133 13.785C86.0237 13.8382 86.9476 13.8021 87.9036 13.6826C88.8385 13.5601 89.6208 13.3954 90.2485 13.1915C90.855 12.9656 91.34 12.7296 91.7076 12.4855C92.4176 11.9965 92.7821 11.5125 92.7972 11.0324L92.7952 10.8687C92.7952 10.8236 92.7932 10.7834 92.7881 10.7442C92.7911 10.6498 92.8002 10.5534 92.8183 10.4701C92.8303 10.4098 92.8323 10.3476 92.8313 10.2873C92.8293 10.1347 92.6847 9.976 92.515 9.93784" fill="#FEBE98"/>
</g>
</g>
</g>
</g>
</g>
<path d="M37.6026 12.0423C35.5781 11.8454 34.0958 14.838 32.244 19.4213C32.5654 16.6014 32.9309 12.922 33.1478 12.0624C40.1814 4.16515 39.0406 0.0558777 36.8675 0.0558777C32.9751 0.0558777 31.1675 10.7488 30.7578 20.4536C30.6734 21.3133 31.8142 21.5502 32.1999 20.4536C33.7504 16.0833 35.6865 12.1065 37.5343 12.3435C38.5265 12.4721 38.0967 16.7943 37.3857 19.4856C30.9948 20.9678 31.3603 24.4986 32.6739 25.0128C33.5134 25.3382 37.3013 24.2817 38.6992 19.4213C40.8924 18.8388 43.1499 16.6215 45.3471 13.416C45.3471 13.3116 45.0459 13.3116 44.9816 13.396C43.2825 15.7619 41.1937 18.4291 38.8036 19.0317C39.2776 16.9469 39.6673 12.2351 37.6026 12.0423ZM33.2121 11.504C33.7946 6.29812 35.3652 0.485685 36.763 0.381246C38.5907 0.228604 39.6673 3.79962 33.2121 11.504ZM32.8225 24.7758C31.8142 24.6714 31.3202 21.2932 37.3013 19.8511C36.0521 23.8318 33.4049 24.8401 32.8225 24.7758Z" fill="black"/>
<path d="M54.4683 13.4402C54.5768 13.2875 54.3157 13.2032 54.0586 13.416C50.8531 18.1078 48.2301 21.2289 46.8523 20.8192C45.1732 20.3251 48.1417 15.4406 47.3464 14.8581C47.3022 14.8139 46.9808 14.6211 45.3218 13.3518C47.1094 10.7729 47.7762 9.2425 46.5711 8.70424C44.3538 7.84462 42.6546 11.2228 44.2694 12.9662C44.5265 13.2232 45.9927 14.2556 46.4426 14.601C45.5388 16.1516 44.5506 18.7545 45.5829 20.4536C45.9244 21.012 46.5912 21.2691 46.9165 21.249C48.8326 21.1204 51.5199 17.6981 54.4683 13.4402ZM45.0447 13.1389C43.9682 12.3194 45.4745 8.61988 46.4626 9.04969C47.4749 9.4795 46.2256 11.3956 45.0447 13.1389Z" fill="black"/>
<path d="M54.8977 20.3452C56.1229 17.1839 58.7058 11.3072 60.3848 11.6325C61.4814 11.8454 59.6939 15.9989 59.7381 18.9031C59.7582 20.1283 60.7263 20.9276 62.1482 19.8712C64.0844 18.4291 66.3419 14.9666 67.5268 13.416C67.5268 13.3116 67.2457 13.3116 67.1613 13.396C66.2334 14.5809 63.5903 18.5175 61.7586 19.7627C60.899 20.3452 60.662 19.9596 60.8347 18.5577C61.136 16.0632 62.6423 11.8896 60.4692 11.3514C58.8142 10.9416 56.7495 14.8581 54.8977 19.4213C55.2191 16.6014 55.5846 12.922 55.8015 12.0624C62.8351 4.16515 61.6943 0.0558777 59.5212 0.0558777C55.6288 0.0558777 53.8212 10.7488 53.4115 20.4536C53.4115 21.2932 54.6407 21.1847 54.8977 20.3452ZM55.8658 11.504C56.4483 6.29812 58.0189 0.485685 59.4167 0.381246C61.2444 0.228604 62.321 3.79962 55.8658 11.504Z" fill="black"/>
<path d="M37.6788 34.922C37.6406 34.922 37.6125 34.9079 37.5944 34.8818C37.5754 34.8527 37.5663 34.8195 37.5663 34.7814C37.5683 34.7201 37.5804 34.684 37.6025 34.6729C37.6236 34.6599 37.6627 34.6528 37.719 34.6528C37.8415 34.6528 37.9319 34.6317 37.9881 34.5886C38.0463 34.5434 38.0825 34.4881 38.0965 34.4239C38.1126 34.3596 38.1227 34.2752 38.1287 34.1708V31.1903H37.6949C37.5523 31.1933 37.4428 31.2224 37.3655 31.2786C37.2902 31.3349 37.2329 31.4192 37.1927 31.5317C37.1526 31.6422 37.1174 31.7988 37.0883 32.0017C37.0853 32.0338 37.0602 32.0609 37.012 32.082C36.9658 32.1041 36.9196 32.1142 36.8714 32.1142C36.8332 32.1142 36.7991 32.1041 36.767 32.082C36.7348 32.0579 36.7188 32.0278 36.7188 31.9896L36.7388 31.1099C36.7388 31.0085 36.7951 30.9573 36.9075 30.9573H39.9644C40.0708 30.9573 40.1251 31.0085 40.1251 31.1099L40.1532 31.9896C40.1532 32.0278 40.1351 32.0579 40.101 32.082C40.0688 32.1041 40.0337 32.1142 39.9965 32.1142C39.9453 32.1142 39.8971 32.1041 39.8519 32.082C39.8087 32.0609 39.7856 32.0338 39.7836 32.0017C39.7485 31.7928 39.7123 31.6351 39.6752 31.5277C39.637 31.4182 39.5788 31.3349 39.4984 31.2786C39.4201 31.2224 39.3106 31.1933 39.1691 31.1903H38.7473V34.1708C38.7493 34.2752 38.7573 34.3596 38.7714 34.4239C38.7874 34.4881 38.8246 34.5434 38.8839 34.5886C38.9421 34.6317 39.0325 34.6528 39.153 34.6528H39.1891C39.2263 34.6528 39.2544 34.6609 39.2735 34.6769C39.2916 34.691 39.3036 34.7251 39.3096 34.7814C39.3096 34.8195 39.2996 34.8527 39.2815 34.8818C39.2624 34.9079 39.2343 34.922 39.1972 34.922C38.929 34.9079 38.683 34.9019 38.4581 34.9019C38.209 34.9019 37.9489 34.9079 37.6788 34.922Z" fill="black"/>
<path d="M41.1681 34.922C41.131 34.922 41.1029 34.9079 41.0838 34.8818C41.0657 34.8527 41.0557 34.8195 41.0557 34.7814C41.0617 34.7201 41.0747 34.684 41.0958 34.6729C41.1149 34.6599 41.138 34.6528 41.1681 34.6528C41.1973 34.6528 41.2163 34.6528 41.2244 34.6528C41.3499 34.6528 41.4423 34.6207 41.5015 34.5564C41.5598 34.4922 41.607 34.4199 41.6421 34.3395C41.6763 34.2572 41.7004 34.2009 41.7144 34.1708L42.807 31.5839C42.8311 31.5197 42.8432 31.4694 42.8432 31.4313C42.8432 31.357 42.8131 31.3027 42.7548 31.2706C42.6986 31.2385 42.6182 31.2124 42.5138 31.1903C42.4415 31.1772 42.3973 31.1652 42.3812 31.1541C42.3652 31.1411 42.3571 31.1049 42.3571 31.0457C42.3571 30.9955 42.3702 30.9613 42.3973 30.9452C42.4234 30.9292 42.4666 30.9211 42.5258 30.9211C42.7347 30.9211 42.9004 30.9372 43.0239 30.9693C43.1465 30.9995 43.2539 31.0607 43.3453 31.1541C43.4357 31.2485 43.522 31.3911 43.6024 31.5839L44.6508 34.1708C44.712 34.3295 44.7723 34.448 44.8315 34.5283C44.8898 34.6066 44.9782 34.6478 45.0967 34.6528H45.1328C45.173 34.6528 45.2011 34.6609 45.2172 34.6769C45.2352 34.691 45.2463 34.7251 45.2493 34.7814C45.2493 34.8195 45.2393 34.8527 45.2212 34.8818C45.2021 34.9079 45.174 34.922 45.1368 34.922C44.8717 34.9079 44.6427 34.9019 44.4499 34.9019C44.2009 34.9019 43.9418 34.9079 43.6747 34.922C43.6365 34.922 43.6084 34.9079 43.5903 34.8818C43.5712 34.8527 43.5622 34.8195 43.5622 34.7814C43.5672 34.7251 43.5783 34.691 43.5943 34.6769C43.6104 34.6609 43.6395 34.6528 43.6827 34.6528C43.8243 34.6528 43.9237 34.6398 43.98 34.6127C44.0382 34.5866 44.0683 34.5363 44.0683 34.464C44.0683 34.4108 44.0442 34.3134 43.996 34.1708L43.7831 33.6526H42.2366C42.1342 33.9097 42.076 34.0603 42.0599 34.1025C42.0458 34.1427 42.0398 34.1658 42.0398 34.1708C41.9886 34.3295 41.9635 34.4309 41.9635 34.4761C41.9635 34.5484 41.9936 34.5966 42.0559 34.6207C42.1201 34.6428 42.2386 34.6528 42.4134 34.6528H42.4495C42.4917 34.6528 42.5218 34.6609 42.5379 34.6769C42.554 34.691 42.564 34.7251 42.57 34.7814C42.57 34.8195 42.56 34.8527 42.5419 34.8818C42.5228 34.9079 42.4947 34.922 42.4576 34.922C42.1894 34.9079 41.9615 34.9019 41.7747 34.9019C41.6401 34.9019 41.4383 34.9079 41.1681 34.922ZM42.3571 33.3835H43.6707L43.04 31.7767H43.0199L42.3571 33.3835Z" fill="black"/>
<path d="M46.4186 34.922C46.3804 34.922 46.3523 34.9079 46.3342 34.8818C46.3151 34.8527 46.3061 34.8195 46.3061 34.7814C46.3081 34.7201 46.3202 34.684 46.3422 34.6729C46.3633 34.6599 46.4035 34.6528 46.4627 34.6528C46.5833 34.6528 46.6716 34.6317 46.7279 34.5886C46.7861 34.5434 46.8223 34.4881 46.8363 34.4239C46.8524 34.3596 46.8624 34.2752 46.8685 34.1708V31.6884C46.8624 31.5839 46.8524 31.4996 46.8363 31.4353C46.8223 31.371 46.7861 31.3178 46.7279 31.2746C46.6716 31.2294 46.5833 31.2063 46.4627 31.2063H46.4226C46.3824 31.2063 46.3523 31.2003 46.3342 31.1862C46.3181 31.1732 46.3081 31.137 46.3061 31.0778C46.3061 31.0406 46.3151 31.0085 46.3342 30.9814C46.3523 30.9523 46.3804 30.9372 46.4186 30.9372C46.6887 30.9513 46.9347 30.9573 47.1577 30.9573C47.4067 30.9573 47.6658 30.9513 47.9369 30.9372C47.9741 30.9372 48.0022 30.9523 48.0213 30.9814C48.0394 31.0085 48.0494 31.0406 48.0494 31.0778C48.0434 31.1401 48.0303 31.1772 48.0093 31.1903C47.9902 31.2013 47.951 31.2063 47.8928 31.2063C47.7723 31.2063 47.6819 31.2294 47.6236 31.2746C47.5644 31.3178 47.5282 31.371 47.5152 31.4353C47.5011 31.4996 47.4921 31.5839 47.4871 31.6884V32.8211C47.5533 32.8081 47.6287 32.7729 47.712 32.7167C47.7943 32.6584 47.8968 32.5761 48.0173 32.4717C48.2503 32.2547 48.5445 31.9364 48.901 31.5156C48.9753 31.4333 49.0135 31.366 49.0135 31.3148C49.0135 31.2535 48.9572 31.2204 48.8448 31.2144C48.8146 31.2093 48.7946 31.1973 48.7845 31.1782C48.7735 31.1601 48.7644 31.128 48.7564 31.0818C48.7564 31.0447 48.7654 31.0115 48.7845 30.9814C48.8056 30.9523 48.8337 30.9372 48.8689 30.9372C49.0135 30.9513 49.2424 30.9573 49.5558 30.9573C49.6542 30.9573 49.8008 30.9533 49.9936 30.9452L50.1262 30.9372C50.1633 30.9372 50.1914 30.9523 50.2105 30.9814C50.2316 31.0085 50.2426 31.0416 50.2426 31.0818C50.2396 31.1411 50.2276 31.1782 50.2065 31.1943C50.1844 31.2083 50.1553 31.2144 50.1181 31.2144C49.9514 31.2063 49.7938 31.2345 49.6441 31.2987C49.4965 31.361 49.3429 31.4714 49.1822 31.6321L48.1699 32.6886C48.3145 32.8683 48.4632 33.04 48.6158 33.2027C48.7705 33.3634 48.9572 33.5522 49.1741 33.7691C49.2836 33.8796 49.4132 34.0131 49.5638 34.1708C49.609 34.217 49.6401 34.2501 49.6562 34.2712C49.7897 34.4058 49.8942 34.4992 49.9695 34.5524C50.0468 34.6066 50.1422 34.6398 50.2547 34.6528C50.2627 34.6528 50.2808 34.6548 50.3109 34.6568C50.3401 34.6568 50.3642 34.6679 50.3832 34.689C50.4013 34.7111 50.4114 34.7412 50.4114 34.7814C50.4114 34.8195 50.4013 34.8527 50.3832 34.8818C50.3642 34.9079 50.336 34.922 50.2989 34.922C50.2507 34.9159 50.1904 34.9139 50.1181 34.9139C49.9675 34.9059 49.851 34.9019 49.7686 34.9019H49.367C48.8177 34.2893 48.3266 33.733 47.8928 33.2349C47.7582 33.0802 47.6236 32.9959 47.4871 32.9818V34.1708C47.4921 34.2752 47.5011 34.3596 47.5152 34.4239C47.5282 34.4881 47.5644 34.5434 47.6236 34.5886C47.6819 34.6317 47.7723 34.6528 47.8928 34.6528H47.9289C47.9711 34.6528 48.0012 34.6609 48.0173 34.6769C48.0334 34.691 48.0434 34.7251 48.0494 34.7814C48.0494 34.8195 48.0394 34.8527 48.0213 34.8818C48.0022 34.9079 47.9741 34.922 47.9369 34.922C47.6688 34.9079 47.4107 34.9019 47.1617 34.9019C46.9367 34.9019 46.6887 34.9079 46.4186 34.922Z" fill="black"/>
<path d="M51.6092 34.922C51.571 34.922 51.5429 34.9079 51.5248 34.8818C51.5057 34.8527 51.4967 34.8195 51.4967 34.7814C51.5017 34.7201 51.5148 34.684 51.5369 34.6729C51.561 34.6599 51.5991 34.6528 51.6534 34.6528C51.7739 34.6528 51.8632 34.6317 51.9225 34.5886C51.9807 34.5434 52.0189 34.4901 52.035 34.4279C52.051 34.3636 52.0611 34.2782 52.0671 34.1708V31.6884C52.0611 31.5819 52.051 31.4976 52.035 31.4353C52.0189 31.371 51.9807 31.3178 51.9225 31.2746C51.8632 31.2294 51.7739 31.2063 51.6534 31.2063H51.6172C51.5791 31.2063 51.5509 31.2003 51.5329 31.1862C51.5138 31.1732 51.5017 31.137 51.4967 31.0778C51.4967 31.0406 51.5057 31.0085 51.5248 30.9814C51.5429 30.9523 51.571 30.9372 51.6092 30.9372C51.8793 30.9513 52.1284 30.9573 52.3563 30.9573C52.6054 30.9573 52.8645 30.9513 53.1356 30.9372C53.1728 30.9372 53.2009 30.9523 53.2199 30.9814C53.238 31.0085 53.2481 31.0406 53.2481 31.0778C53.242 31.1401 53.228 31.1772 53.2039 31.1903C53.1818 31.2013 53.1436 31.2063 53.0874 31.2063C52.9639 31.2063 52.8725 31.2294 52.8142 31.2746C52.758 31.3178 52.7219 31.371 52.7058 31.4353C52.6917 31.4996 52.6827 31.5839 52.6777 31.6884V34.1708C52.6827 34.2752 52.6917 34.3596 52.7058 34.4239C52.7219 34.4881 52.758 34.5434 52.8142 34.5886C52.8725 34.6317 52.9639 34.6528 53.0874 34.6528H53.1235C53.1637 34.6528 53.1928 34.6609 53.2119 34.6769C53.23 34.691 53.242 34.7251 53.2481 34.7814C53.2481 34.8195 53.238 34.8527 53.2199 34.8818C53.2009 34.9079 53.1728 34.922 53.1356 34.922C52.8675 34.9079 52.6094 34.9019 52.3603 34.9019C52.1294 34.9019 51.8793 34.9079 51.6092 34.922Z" fill="black"/>
<path d="M54.7084 34.922C54.6763 34.922 54.6492 34.9079 54.6281 34.8818C54.606 34.8527 54.5959 34.8195 54.5959 34.7814C54.601 34.7201 54.614 34.684 54.6361 34.6729C54.6602 34.6599 54.7014 34.6528 54.7606 34.6528C54.8811 34.6528 54.9695 34.6317 55.0258 34.5886C55.084 34.5434 55.1202 34.4881 55.1342 34.4239C55.1503 34.3596 55.1603 34.2752 55.1663 34.1708V31.6884C55.1603 31.5839 55.1503 31.4996 55.1342 31.4353C55.1202 31.371 55.084 31.3178 55.0258 31.2746C54.9695 31.2294 54.8811 31.2063 54.7606 31.2063H54.7205C54.6803 31.2063 54.6502 31.2003 54.6321 31.1862C54.613 31.1732 54.601 31.137 54.5959 31.0778C54.5959 31.0406 54.606 31.0085 54.6281 30.9814C54.6492 30.9523 54.6763 30.9372 54.7084 30.9372C54.9786 30.9513 55.2286 30.9573 55.4596 30.9573H56.3955C56.759 30.9573 57.1105 31.0326 57.4479 31.1822C57.7874 31.3329 57.9581 31.6321 57.9581 32.082C57.9581 32.3341 57.8828 32.558 57.7331 32.7528C57.5825 32.9487 57.3887 33.1013 57.1507 33.2108C56.9117 33.3182 56.6626 33.3714 56.4035 33.3714C56.1645 33.3714 55.9557 33.3383 55.7769 33.271V34.1708C55.7819 34.2752 55.791 34.3596 55.805 34.4239C55.8211 34.4881 55.8573 34.5434 55.9135 34.5886C55.9717 34.6317 56.0631 34.6528 56.1866 34.6528H56.2228C56.263 34.6528 56.2921 34.6609 56.3112 34.6769C56.3292 34.691 56.3413 34.7251 56.3473 34.7814C56.3473 34.8195 56.3373 34.8527 56.3192 34.8818C56.3001 34.9079 56.272 34.922 56.2348 34.922C55.9667 34.9079 55.7066 34.9019 55.4556 34.9019C55.2276 34.9019 54.9786 34.9079 54.7084 34.922ZM56.2228 33.0903C56.3724 33.0903 56.5281 33.0611 56.6887 33.0019C56.8494 32.9406 56.986 32.8362 57.0985 32.6886C57.2109 32.5389 57.2672 32.3431 57.2672 32.1021C57.2672 31.7356 57.1487 31.4915 56.9137 31.371C56.6807 31.2505 56.4327 31.1903 56.1706 31.1903C56.0631 31.1903 55.9828 31.2023 55.9296 31.2264C55.8753 31.2485 55.8372 31.2927 55.8131 31.359C55.789 31.4263 55.7769 31.5307 55.7769 31.6723V33.022C55.8783 33.0682 56.027 33.0903 56.2228 33.0903Z" fill="black"/>
</svg>
